<mxfile host="app.diagrams.net" agent="Mozilla/5.0 (Windows NT 10.0; Win64; x64) AppleWebKit/537.36 (KHTML, like Gecko) Chrome/135.0.0.0 Safari/537.36" version="26.2.9">
  <diagram name="페이지-1" id="-Xy2BdAUqIZddtI0SzNl">
    <mxGraphModel dx="1428" dy="777" grid="1" gridSize="10" guides="1" tooltips="1" connect="1" arrows="1" fold="1" page="1" pageScale="1" pageWidth="827" pageHeight="1169" math="0" shadow="0">
      <root>
        <mxCell id="0" />
        <mxCell id="1" parent="0" />
        <mxCell id="2z-QHQyK7kjpqWGuO4v4-1" value="분류" style="whiteSpace=wrap;html=1;align=center;fillColor=#ffe6cc;strokeColor=#d79b00;" vertex="1" parent="1">
          <mxGeometry x="1037.5" y="630" width="100" height="40" as="geometry" />
        </mxCell>
        <mxCell id="2z-QHQyK7kjpqWGuO4v4-2" value="발주" style="whiteSpace=wrap;html=1;align=center;fillColor=#ffe6cc;strokeColor=#d79b00;" vertex="1" parent="1">
          <mxGeometry x="1560" y="890" width="100" height="40" as="geometry" />
        </mxCell>
        <mxCell id="2z-QHQyK7kjpqWGuO4v4-3" value="직원" style="whiteSpace=wrap;html=1;align=center;fillColor=#ffe6cc;strokeColor=#d79b00;" vertex="1" parent="1">
          <mxGeometry x="1005" y="390" width="100" height="40" as="geometry" />
        </mxCell>
        <mxCell id="2z-QHQyK7kjpqWGuO4v4-4" value="상품" style="whiteSpace=wrap;html=1;align=center;fillColor=#ffe6cc;strokeColor=#d79b00;" vertex="1" parent="1">
          <mxGeometry x="760" y="630" width="100" height="40" as="geometry" />
        </mxCell>
        <mxCell id="2z-QHQyK7kjpqWGuO4v4-5" value="월별 이익" style="whiteSpace=wrap;html=1;align=center;fillColor=#ffe6cc;strokeColor=#d79b00;" vertex="1" parent="1">
          <mxGeometry x="1665" y="390" width="100" height="40" as="geometry" />
        </mxCell>
        <mxCell id="2z-QHQyK7kjpqWGuO4v4-6" value="기자재" style="whiteSpace=wrap;html=1;align=center;fillColor=#ffe6cc;strokeColor=#d79b00;" vertex="1" parent="1">
          <mxGeometry x="1315" y="390" width="100" height="40" as="geometry" />
        </mxCell>
        <mxCell id="2z-QHQyK7kjpqWGuO4v4-7" value="이벤트" style="whiteSpace=wrap;html=1;align=center;fillColor=#ffe6cc;strokeColor=#d79b00;" vertex="1" parent="1">
          <mxGeometry x="1735" y="630" width="100" height="40" as="geometry" />
        </mxCell>
        <mxCell id="2z-QHQyK7kjpqWGuO4v4-8" style="edgeStyle=orthogonalEdgeStyle;rounded=0;orthogonalLoop=1;jettySize=auto;html=1;exitX=0.5;exitY=1;exitDx=0;exitDy=0;" edge="1" parent="1" source="2z-QHQyK7kjpqWGuO4v4-6" target="2z-QHQyK7kjpqWGuO4v4-6">
          <mxGeometry relative="1" as="geometry" />
        </mxCell>
        <mxCell id="2z-QHQyK7kjpqWGuO4v4-9" value="실판매상품" style="whiteSpace=wrap;html=1;align=center;fillColor=#ffe6cc;strokeColor=#d79b00;" vertex="1" parent="1">
          <mxGeometry x="1380" y="700" width="100" height="40" as="geometry" />
        </mxCell>
        <mxCell id="2z-QHQyK7kjpqWGuO4v4-10" value="매출" style="whiteSpace=wrap;html=1;align=center;fillColor=#ffe6cc;strokeColor=#d79b00;" vertex="1" parent="1">
          <mxGeometry x="1184" y="860" width="100" height="40" as="geometry" />
        </mxCell>
        <mxCell id="2z-QHQyK7kjpqWGuO4v4-11" value="직급" style="ellipse;whiteSpace=wrap;html=1;align=center;fillColor=#fff2cc;strokeColor=#d6b656;" vertex="1" parent="1">
          <mxGeometry x="1065" y="290" width="100" height="40" as="geometry" />
        </mxCell>
        <mxCell id="2z-QHQyK7kjpqWGuO4v4-12" value="근무평가" style="ellipse;whiteSpace=wrap;html=1;align=center;fillColor=#fff2cc;strokeColor=#d6b656;" vertex="1" parent="1">
          <mxGeometry x="845" y="450" width="100" height="40" as="geometry" />
        </mxCell>
        <mxCell id="2z-QHQyK7kjpqWGuO4v4-13" value="연락처" style="ellipse;whiteSpace=wrap;html=1;align=center;fillColor=#fff2cc;strokeColor=#d6b656;" vertex="1" parent="1">
          <mxGeometry x="945" y="290" width="100" height="40" as="geometry" />
        </mxCell>
        <mxCell id="2z-QHQyK7kjpqWGuO4v4-14" value="이름" style="ellipse;whiteSpace=wrap;html=1;align=center;fillColor=#fff2cc;strokeColor=#d6b656;" vertex="1" parent="1">
          <mxGeometry x="845" y="330" width="100" height="40" as="geometry" />
        </mxCell>
        <mxCell id="2z-QHQyK7kjpqWGuO4v4-15" value="월급" style="ellipse;whiteSpace=wrap;html=1;align=center;fillColor=#fff2cc;strokeColor=#d6b656;" vertex="1" parent="1">
          <mxGeometry x="1065" y="490" width="100" height="40" as="geometry" />
        </mxCell>
        <mxCell id="2z-QHQyK7kjpqWGuO4v4-16" value="근무시간" style="ellipse;whiteSpace=wrap;html=1;align=center;fillColor=#fff2cc;strokeColor=#d6b656;" vertex="1" parent="1">
          <mxGeometry x="945" y="490" width="100" height="40" as="geometry" />
        </mxCell>
        <mxCell id="2z-QHQyK7kjpqWGuO4v4-17" value="직원번호" style="ellipse;whiteSpace=wrap;html=1;align=center;fontStyle=4;fillColor=#fff2cc;strokeColor=#d6b656;" vertex="1" parent="1">
          <mxGeometry x="825" y="390" width="100" height="40" as="geometry" />
        </mxCell>
        <mxCell id="2z-QHQyK7kjpqWGuO4v4-18" value="" style="endArrow=none;html=1;rounded=0;exitX=0.5;exitY=1;exitDx=0;exitDy=0;entryX=0.5;entryY=0;entryDx=0;entryDy=0;" edge="1" parent="1" source="2z-QHQyK7kjpqWGuO4v4-13" target="2z-QHQyK7kjpqWGuO4v4-3">
          <mxGeometry relative="1" as="geometry">
            <mxPoint x="1405" y="540" as="sourcePoint" />
            <mxPoint x="1565" y="540" as="targetPoint" />
          </mxGeometry>
        </mxCell>
        <mxCell id="2z-QHQyK7kjpqWGuO4v4-19" value="" style="endArrow=none;html=1;rounded=0;exitX=0.5;exitY=1;exitDx=0;exitDy=0;entryX=0.75;entryY=0;entryDx=0;entryDy=0;" edge="1" parent="1" source="2z-QHQyK7kjpqWGuO4v4-11" target="2z-QHQyK7kjpqWGuO4v4-3">
          <mxGeometry relative="1" as="geometry">
            <mxPoint x="1005" y="340" as="sourcePoint" />
            <mxPoint x="1040" y="400" as="targetPoint" />
          </mxGeometry>
        </mxCell>
        <mxCell id="2z-QHQyK7kjpqWGuO4v4-20" value="" style="endArrow=none;html=1;rounded=0;exitX=1;exitY=0.5;exitDx=0;exitDy=0;entryX=0.25;entryY=0;entryDx=0;entryDy=0;" edge="1" parent="1" source="2z-QHQyK7kjpqWGuO4v4-14" target="2z-QHQyK7kjpqWGuO4v4-3">
          <mxGeometry relative="1" as="geometry">
            <mxPoint x="1015" y="350" as="sourcePoint" />
            <mxPoint x="1050" y="410" as="targetPoint" />
          </mxGeometry>
        </mxCell>
        <mxCell id="2z-QHQyK7kjpqWGuO4v4-21" value="" style="endArrow=none;html=1;rounded=0;exitX=1;exitY=0.5;exitDx=0;exitDy=0;entryX=0;entryY=0.5;entryDx=0;entryDy=0;" edge="1" parent="1" source="2z-QHQyK7kjpqWGuO4v4-17" target="2z-QHQyK7kjpqWGuO4v4-3">
          <mxGeometry relative="1" as="geometry">
            <mxPoint x="1025" y="360" as="sourcePoint" />
            <mxPoint x="1060" y="420" as="targetPoint" />
          </mxGeometry>
        </mxCell>
        <mxCell id="2z-QHQyK7kjpqWGuO4v4-22" value="" style="endArrow=none;html=1;rounded=0;exitX=1;exitY=0.5;exitDx=0;exitDy=0;entryX=0.25;entryY=1;entryDx=0;entryDy=0;" edge="1" parent="1" source="2z-QHQyK7kjpqWGuO4v4-12" target="2z-QHQyK7kjpqWGuO4v4-3">
          <mxGeometry relative="1" as="geometry">
            <mxPoint x="1035" y="370" as="sourcePoint" />
            <mxPoint x="1070" y="430" as="targetPoint" />
          </mxGeometry>
        </mxCell>
        <mxCell id="2z-QHQyK7kjpqWGuO4v4-23" value="" style="endArrow=none;html=1;rounded=0;exitX=0.5;exitY=1;exitDx=0;exitDy=0;entryX=0.5;entryY=0;entryDx=0;entryDy=0;" edge="1" parent="1" source="2z-QHQyK7kjpqWGuO4v4-3" target="2z-QHQyK7kjpqWGuO4v4-16">
          <mxGeometry relative="1" as="geometry">
            <mxPoint x="1045" y="380" as="sourcePoint" />
            <mxPoint x="1080" y="440" as="targetPoint" />
          </mxGeometry>
        </mxCell>
        <mxCell id="2z-QHQyK7kjpqWGuO4v4-24" value="" style="endArrow=none;html=1;rounded=0;exitX=0.5;exitY=0;exitDx=0;exitDy=0;entryX=0.75;entryY=1;entryDx=0;entryDy=0;" edge="1" parent="1" source="2z-QHQyK7kjpqWGuO4v4-15" target="2z-QHQyK7kjpqWGuO4v4-3">
          <mxGeometry relative="1" as="geometry">
            <mxPoint x="1055" y="390" as="sourcePoint" />
            <mxPoint x="1090" y="450" as="targetPoint" />
          </mxGeometry>
        </mxCell>
        <mxCell id="2z-QHQyK7kjpqWGuO4v4-25" value="비고" style="ellipse;whiteSpace=wrap;html=1;align=center;fillColor=#fff2cc;strokeColor=#d6b656;" vertex="1" parent="1">
          <mxGeometry x="1485" y="350" width="100" height="40" as="geometry" />
        </mxCell>
        <mxCell id="2z-QHQyK7kjpqWGuO4v4-26" value="개수" style="ellipse;whiteSpace=wrap;html=1;align=center;fillColor=#fff2cc;strokeColor=#d6b656;" vertex="1" parent="1">
          <mxGeometry x="1365" y="300" width="100" height="40" as="geometry" />
        </mxCell>
        <mxCell id="2z-QHQyK7kjpqWGuO4v4-27" value="기자재명" style="ellipse;whiteSpace=wrap;html=1;align=center;fillColor=#fff2cc;strokeColor=#d6b656;" vertex="1" parent="1">
          <mxGeometry x="1245" y="300" width="100" height="40" as="geometry" />
        </mxCell>
        <mxCell id="2z-QHQyK7kjpqWGuO4v4-28" value="일자" style="ellipse;whiteSpace=wrap;html=1;align=center;fillColor=#fff2cc;strokeColor=#d6b656;" vertex="1" parent="1">
          <mxGeometry x="1365" y="480" width="100" height="40" as="geometry" />
        </mxCell>
        <mxCell id="2z-QHQyK7kjpqWGuO4v4-29" value="관리자 번호" style="ellipse;whiteSpace=wrap;html=1;align=center;fillColor=#fff2cc;strokeColor=#d6b656;" vertex="1" parent="1">
          <mxGeometry x="1485" y="430" width="100" height="40" as="geometry" />
        </mxCell>
        <mxCell id="2z-QHQyK7kjpqWGuO4v4-30" value="기자재 번호" style="ellipse;whiteSpace=wrap;html=1;align=center;fontStyle=4;fillColor=#fff2cc;strokeColor=#d6b656;" vertex="1" parent="1">
          <mxGeometry x="1245" y="480" width="100" height="40" as="geometry" />
        </mxCell>
        <mxCell id="2z-QHQyK7kjpqWGuO4v4-31" value="" style="endArrow=none;html=1;rounded=0;exitX=0.25;exitY=0;exitDx=0;exitDy=0;entryX=0.5;entryY=1;entryDx=0;entryDy=0;" edge="1" parent="1" source="2z-QHQyK7kjpqWGuO4v4-6" target="2z-QHQyK7kjpqWGuO4v4-27">
          <mxGeometry relative="1" as="geometry">
            <mxPoint x="1125" y="340" as="sourcePoint" />
            <mxPoint x="1090" y="400" as="targetPoint" />
          </mxGeometry>
        </mxCell>
        <mxCell id="2z-QHQyK7kjpqWGuO4v4-32" value="" style="endArrow=none;html=1;rounded=0;exitX=0.75;exitY=0;exitDx=0;exitDy=0;entryX=0.5;entryY=1;entryDx=0;entryDy=0;" edge="1" parent="1" source="2z-QHQyK7kjpqWGuO4v4-6" target="2z-QHQyK7kjpqWGuO4v4-26">
          <mxGeometry relative="1" as="geometry">
            <mxPoint x="1135" y="350" as="sourcePoint" />
            <mxPoint x="1100" y="410" as="targetPoint" />
          </mxGeometry>
        </mxCell>
        <mxCell id="2z-QHQyK7kjpqWGuO4v4-33" value="" style="endArrow=none;html=1;rounded=0;exitX=1;exitY=0.25;exitDx=0;exitDy=0;entryX=0;entryY=0.5;entryDx=0;entryDy=0;" edge="1" parent="1" source="2z-QHQyK7kjpqWGuO4v4-6" target="2z-QHQyK7kjpqWGuO4v4-25">
          <mxGeometry relative="1" as="geometry">
            <mxPoint x="1145" y="360" as="sourcePoint" />
            <mxPoint x="1110" y="420" as="targetPoint" />
          </mxGeometry>
        </mxCell>
        <mxCell id="2z-QHQyK7kjpqWGuO4v4-34" value="" style="endArrow=none;html=1;rounded=0;exitX=1;exitY=0.75;exitDx=0;exitDy=0;entryX=0;entryY=0.5;entryDx=0;entryDy=0;" edge="1" parent="1" source="2z-QHQyK7kjpqWGuO4v4-6" target="2z-QHQyK7kjpqWGuO4v4-29">
          <mxGeometry relative="1" as="geometry">
            <mxPoint x="1155" y="370" as="sourcePoint" />
            <mxPoint x="1120" y="430" as="targetPoint" />
          </mxGeometry>
        </mxCell>
        <mxCell id="2z-QHQyK7kjpqWGuO4v4-35" value="" style="endArrow=none;html=1;rounded=0;exitX=0.25;exitY=1;exitDx=0;exitDy=0;entryX=0.5;entryY=0;entryDx=0;entryDy=0;" edge="1" parent="1" source="2z-QHQyK7kjpqWGuO4v4-6" target="2z-QHQyK7kjpqWGuO4v4-30">
          <mxGeometry relative="1" as="geometry">
            <mxPoint x="1165" y="380" as="sourcePoint" />
            <mxPoint x="1130" y="440" as="targetPoint" />
          </mxGeometry>
        </mxCell>
        <mxCell id="2z-QHQyK7kjpqWGuO4v4-36" value="" style="endArrow=none;html=1;rounded=0;exitX=0.5;exitY=0;exitDx=0;exitDy=0;entryX=0.75;entryY=1;entryDx=0;entryDy=0;" edge="1" parent="1" source="2z-QHQyK7kjpqWGuO4v4-28" target="2z-QHQyK7kjpqWGuO4v4-6">
          <mxGeometry relative="1" as="geometry">
            <mxPoint x="1175" y="390" as="sourcePoint" />
            <mxPoint x="1140" y="450" as="targetPoint" />
          </mxGeometry>
        </mxCell>
        <mxCell id="2z-QHQyK7kjpqWGuO4v4-37" value="년 월" style="ellipse;whiteSpace=wrap;html=1;align=center;fontStyle=4;fillColor=#fff2cc;strokeColor=#d6b656;" vertex="1" parent="1">
          <mxGeometry x="1615" y="470" width="100" height="40" as="geometry" />
        </mxCell>
        <mxCell id="2z-QHQyK7kjpqWGuO4v4-38" value="수익" style="ellipse;whiteSpace=wrap;html=1;align=center;fillColor=#fff2cc;strokeColor=#d6b656;" vertex="1" parent="1">
          <mxGeometry x="1745" y="470" width="100" height="40" as="geometry" />
        </mxCell>
        <mxCell id="2z-QHQyK7kjpqWGuO4v4-39" value="순이익" style="ellipse;whiteSpace=wrap;html=1;align=center;fillColor=#fff2cc;strokeColor=#d6b656;" vertex="1" parent="1">
          <mxGeometry x="1805" y="389" width="100" height="40" as="geometry" />
        </mxCell>
        <mxCell id="2z-QHQyK7kjpqWGuO4v4-40" value="인건비용" style="ellipse;whiteSpace=wrap;html=1;align=center;fillColor=#fff2cc;strokeColor=#d6b656;" vertex="1" parent="1">
          <mxGeometry x="1745" y="320" width="100" height="40" as="geometry" />
        </mxCell>
        <mxCell id="2z-QHQyK7kjpqWGuO4v4-41" value="발주비용" style="ellipse;whiteSpace=wrap;html=1;align=center;fillColor=#fff2cc;strokeColor=#d6b656;" vertex="1" parent="1">
          <mxGeometry x="1615" y="320" width="100" height="40" as="geometry" />
        </mxCell>
        <mxCell id="2z-QHQyK7kjpqWGuO4v4-42" value="" style="endArrow=none;html=1;rounded=0;exitX=0.75;exitY=0;exitDx=0;exitDy=0;entryX=0.5;entryY=1;entryDx=0;entryDy=0;" edge="1" parent="1" source="2z-QHQyK7kjpqWGuO4v4-5" target="2z-QHQyK7kjpqWGuO4v4-40">
          <mxGeometry relative="1" as="geometry">
            <mxPoint x="1425" y="410" as="sourcePoint" />
            <mxPoint x="1495" y="380" as="targetPoint" />
          </mxGeometry>
        </mxCell>
        <mxCell id="2z-QHQyK7kjpqWGuO4v4-43" value="" style="endArrow=none;html=1;rounded=0;exitX=0.25;exitY=0;exitDx=0;exitDy=0;entryX=0.5;entryY=1;entryDx=0;entryDy=0;" edge="1" parent="1" source="2z-QHQyK7kjpqWGuO4v4-5" target="2z-QHQyK7kjpqWGuO4v4-41">
          <mxGeometry relative="1" as="geometry">
            <mxPoint x="1435" y="420" as="sourcePoint" />
            <mxPoint x="1505" y="390" as="targetPoint" />
          </mxGeometry>
        </mxCell>
        <mxCell id="2z-QHQyK7kjpqWGuO4v4-44" value="" style="endArrow=none;html=1;rounded=0;exitX=0;exitY=0.5;exitDx=0;exitDy=0;entryX=1;entryY=0.5;entryDx=0;entryDy=0;" edge="1" parent="1" source="2z-QHQyK7kjpqWGuO4v4-39" target="2z-QHQyK7kjpqWGuO4v4-5">
          <mxGeometry relative="1" as="geometry">
            <mxPoint x="1445" y="430" as="sourcePoint" />
            <mxPoint x="1515" y="400" as="targetPoint" />
          </mxGeometry>
        </mxCell>
        <mxCell id="2z-QHQyK7kjpqWGuO4v4-45" value="" style="endArrow=none;html=1;rounded=0;exitX=0.5;exitY=0;exitDx=0;exitDy=0;entryX=0.75;entryY=1;entryDx=0;entryDy=0;" edge="1" parent="1" source="2z-QHQyK7kjpqWGuO4v4-38" target="2z-QHQyK7kjpqWGuO4v4-5">
          <mxGeometry relative="1" as="geometry">
            <mxPoint x="1455" y="440" as="sourcePoint" />
            <mxPoint x="1525" y="410" as="targetPoint" />
          </mxGeometry>
        </mxCell>
        <mxCell id="2z-QHQyK7kjpqWGuO4v4-46" value="" style="endArrow=none;html=1;rounded=0;exitX=0.5;exitY=0;exitDx=0;exitDy=0;entryX=0.25;entryY=1;entryDx=0;entryDy=0;" edge="1" parent="1" source="2z-QHQyK7kjpqWGuO4v4-37" target="2z-QHQyK7kjpqWGuO4v4-5">
          <mxGeometry relative="1" as="geometry">
            <mxPoint x="1465" y="450" as="sourcePoint" />
            <mxPoint x="1535" y="420" as="targetPoint" />
          </mxGeometry>
        </mxCell>
        <mxCell id="2z-QHQyK7kjpqWGuO4v4-47" value="이벤트 번호" style="ellipse;whiteSpace=wrap;html=1;align=center;fontStyle=4;fillColor=#fff2cc;strokeColor=#d6b656;" vertex="1" parent="1">
          <mxGeometry x="1805" y="690" width="100" height="40" as="geometry" />
        </mxCell>
        <mxCell id="2z-QHQyK7kjpqWGuO4v4-48" value="발주 번호" style="ellipse;whiteSpace=wrap;html=1;align=center;fontStyle=4;fillColor=#fff2cc;strokeColor=#d6b656;" vertex="1" parent="1">
          <mxGeometry x="1560" y="1010" width="100" height="40" as="geometry" />
        </mxCell>
        <mxCell id="2z-QHQyK7kjpqWGuO4v4-49" value="실판매상품번호" style="ellipse;whiteSpace=wrap;html=1;align=center;fontStyle=4;fillColor=#fff2cc;strokeColor=#d6b656;" vertex="1" parent="1">
          <mxGeometry x="1320" y="580" width="100" height="40" as="geometry" />
        </mxCell>
        <mxCell id="2z-QHQyK7kjpqWGuO4v4-50" value="판매 번호" style="ellipse;whiteSpace=wrap;html=1;align=center;fontStyle=4;fillColor=#fff2cc;strokeColor=#d6b656;" vertex="1" parent="1">
          <mxGeometry x="984" y="940" width="100" height="40" as="geometry" />
        </mxCell>
        <mxCell id="2z-QHQyK7kjpqWGuO4v4-51" value="카탈로그 번호" style="ellipse;whiteSpace=wrap;html=1;align=center;fontStyle=4;fillColor=#fff2cc;strokeColor=#d6b656;" vertex="1" parent="1">
          <mxGeometry x="967.5" y="710" width="100" height="40" as="geometry" />
        </mxCell>
        <mxCell id="2z-QHQyK7kjpqWGuO4v4-52" value="상품번호" style="ellipse;whiteSpace=wrap;html=1;align=center;fontStyle=4;fillColor=#fff2cc;strokeColor=#d6b656;" vertex="1" parent="1">
          <mxGeometry x="600" y="670" width="100" height="40" as="geometry" />
        </mxCell>
        <mxCell id="2z-QHQyK7kjpqWGuO4v4-53" value="분류 번호" style="ellipse;whiteSpace=wrap;html=1;align=center;fillColor=#fff2cc;strokeColor=#d6b656;" vertex="1" parent="1">
          <mxGeometry x="710" y="550" width="100" height="40" as="geometry" />
        </mxCell>
        <mxCell id="2z-QHQyK7kjpqWGuO4v4-54" value="상품몀" style="ellipse;whiteSpace=wrap;html=1;align=center;fillColor=#fff2cc;strokeColor=#d6b656;" vertex="1" parent="1">
          <mxGeometry x="600" y="590" width="100" height="40" as="geometry" />
        </mxCell>
        <mxCell id="2z-QHQyK7kjpqWGuO4v4-55" value="가격" style="ellipse;whiteSpace=wrap;html=1;align=center;fillColor=#fff2cc;strokeColor=#d6b656;" vertex="1" parent="1">
          <mxGeometry x="710" y="710" width="100" height="40" as="geometry" />
        </mxCell>
        <mxCell id="2z-QHQyK7kjpqWGuO4v4-56" value="" style="endArrow=none;html=1;rounded=0;exitX=0.5;exitY=1;exitDx=0;exitDy=0;entryX=0.5;entryY=0;entryDx=0;entryDy=0;" edge="1" parent="1" source="2z-QHQyK7kjpqWGuO4v4-53" target="2z-QHQyK7kjpqWGuO4v4-4">
          <mxGeometry relative="1" as="geometry">
            <mxPoint x="910" y="450" as="sourcePoint" />
            <mxPoint x="850" y="510" as="targetPoint" />
          </mxGeometry>
        </mxCell>
        <mxCell id="2z-QHQyK7kjpqWGuO4v4-57" value="" style="endArrow=none;html=1;rounded=0;entryX=0;entryY=0.25;entryDx=0;entryDy=0;exitX=1;exitY=0.5;exitDx=0;exitDy=0;" edge="1" parent="1" source="2z-QHQyK7kjpqWGuO4v4-54" target="2z-QHQyK7kjpqWGuO4v4-4">
          <mxGeometry relative="1" as="geometry">
            <mxPoint x="665" y="624" as="sourcePoint" />
            <mxPoint x="780" y="640" as="targetPoint" />
          </mxGeometry>
        </mxCell>
        <mxCell id="2z-QHQyK7kjpqWGuO4v4-58" value="" style="endArrow=none;html=1;rounded=0;exitX=1;exitY=0.5;exitDx=0;exitDy=0;entryX=0;entryY=0.75;entryDx=0;entryDy=0;" edge="1" parent="1" source="2z-QHQyK7kjpqWGuO4v4-52" target="2z-QHQyK7kjpqWGuO4v4-4">
          <mxGeometry relative="1" as="geometry">
            <mxPoint x="790" y="610" as="sourcePoint" />
            <mxPoint x="790" y="650" as="targetPoint" />
          </mxGeometry>
        </mxCell>
        <mxCell id="2z-QHQyK7kjpqWGuO4v4-59" value="" style="endArrow=none;html=1;rounded=0;exitX=0.5;exitY=0;exitDx=0;exitDy=0;entryX=0.5;entryY=1;entryDx=0;entryDy=0;" edge="1" parent="1" source="2z-QHQyK7kjpqWGuO4v4-55" target="2z-QHQyK7kjpqWGuO4v4-4">
          <mxGeometry relative="1" as="geometry">
            <mxPoint x="800" y="620" as="sourcePoint" />
            <mxPoint x="800" y="660" as="targetPoint" />
          </mxGeometry>
        </mxCell>
        <mxCell id="2z-QHQyK7kjpqWGuO4v4-60" value="카탈로그명" style="ellipse;whiteSpace=wrap;html=1;align=center;fillColor=#fff2cc;strokeColor=#d6b656;" vertex="1" parent="1">
          <mxGeometry x="1107.5" y="710" width="100" height="40" as="geometry" />
        </mxCell>
        <mxCell id="2z-QHQyK7kjpqWGuO4v4-61" value="재고량" style="ellipse;whiteSpace=wrap;html=1;align=center;fillColor=#fff2cc;strokeColor=#d6b656;" vertex="1" parent="1">
          <mxGeometry x="1230" y="690" width="100" height="40" as="geometry" />
        </mxCell>
        <mxCell id="2z-QHQyK7kjpqWGuO4v4-62" value="실판매상품가격" style="ellipse;whiteSpace=wrap;html=1;align=center;fillColor=#fff2cc;strokeColor=#d6b656;" vertex="1" parent="1">
          <mxGeometry x="1530" y="650" width="100" height="40" as="geometry" />
        </mxCell>
        <mxCell id="2z-QHQyK7kjpqWGuO4v4-63" value="분류번호" style="ellipse;whiteSpace=wrap;html=1;align=center;fillColor=#fff2cc;strokeColor=#d6b656;" vertex="1" parent="1">
          <mxGeometry x="1380" y="780" width="100" height="40" as="geometry" />
        </mxCell>
        <mxCell id="2z-QHQyK7kjpqWGuO4v4-64" value="실판매상품명" style="ellipse;whiteSpace=wrap;html=1;align=center;fillColor=#fff2cc;strokeColor=#d6b656;" vertex="1" parent="1">
          <mxGeometry x="1440" y="580" width="100" height="40" as="geometry" />
        </mxCell>
        <mxCell id="2z-QHQyK7kjpqWGuO4v4-65" value="이벤트명" style="ellipse;whiteSpace=wrap;html=1;align=center;fillColor=#fff2cc;strokeColor=#d6b656;" vertex="1" parent="1">
          <mxGeometry x="1805" y="570" width="100" height="40" as="geometry" />
        </mxCell>
        <mxCell id="2z-QHQyK7kjpqWGuO4v4-66" value="이벤트 기간" style="ellipse;whiteSpace=wrap;html=1;align=center;fillColor=#fff2cc;strokeColor=#d6b656;" vertex="1" parent="1">
          <mxGeometry x="1560" y="700" width="100" height="40" as="geometry" />
        </mxCell>
        <mxCell id="2z-QHQyK7kjpqWGuO4v4-67" value="유통기한" style="ellipse;whiteSpace=wrap;html=1;align=center;fillColor=#fff2cc;strokeColor=#d6b656;" vertex="1" parent="1">
          <mxGeometry x="1535" y="760" width="100" height="40" as="geometry" />
        </mxCell>
        <mxCell id="2z-QHQyK7kjpqWGuO4v4-68" value="" style="endArrow=none;html=1;rounded=0;entryX=0;entryY=0.5;entryDx=0;entryDy=0;exitX=1;exitY=0.5;exitDx=0;exitDy=0;" edge="1" parent="1" source="2z-QHQyK7kjpqWGuO4v4-61" target="2z-QHQyK7kjpqWGuO4v4-9">
          <mxGeometry width="50" height="50" relative="1" as="geometry">
            <mxPoint x="1290" y="615" as="sourcePoint" />
            <mxPoint x="1450" y="720" as="targetPoint" />
          </mxGeometry>
        </mxCell>
        <mxCell id="2z-QHQyK7kjpqWGuO4v4-69" value="" style="endArrow=none;html=1;rounded=0;entryX=0.5;entryY=0;entryDx=0;entryDy=0;exitX=0.5;exitY=1;exitDx=0;exitDy=0;" edge="1" parent="1" source="2z-QHQyK7kjpqWGuO4v4-49" target="2z-QHQyK7kjpqWGuO4v4-9">
          <mxGeometry width="50" height="50" relative="1" as="geometry">
            <mxPoint x="1300" y="625" as="sourcePoint" />
            <mxPoint x="1460" y="730" as="targetPoint" />
          </mxGeometry>
        </mxCell>
        <mxCell id="2z-QHQyK7kjpqWGuO4v4-70" value="" style="endArrow=none;html=1;rounded=0;entryX=0.5;entryY=0;entryDx=0;entryDy=0;exitX=0.5;exitY=1;exitDx=0;exitDy=0;" edge="1" parent="1" source="2z-QHQyK7kjpqWGuO4v4-64" target="2z-QHQyK7kjpqWGuO4v4-9">
          <mxGeometry width="50" height="50" relative="1" as="geometry">
            <mxPoint x="1310" y="635" as="sourcePoint" />
            <mxPoint x="1470" y="740" as="targetPoint" />
          </mxGeometry>
        </mxCell>
        <mxCell id="2z-QHQyK7kjpqWGuO4v4-71" value="" style="endArrow=none;html=1;rounded=0;entryX=1;entryY=0.25;entryDx=0;entryDy=0;exitX=0;exitY=0.5;exitDx=0;exitDy=0;" edge="1" parent="1" source="2z-QHQyK7kjpqWGuO4v4-62" target="2z-QHQyK7kjpqWGuO4v4-9">
          <mxGeometry width="50" height="50" relative="1" as="geometry">
            <mxPoint x="1500" y="630" as="sourcePoint" />
            <mxPoint x="1440" y="710" as="targetPoint" />
          </mxGeometry>
        </mxCell>
        <mxCell id="2z-QHQyK7kjpqWGuO4v4-72" value="" style="endArrow=none;html=1;rounded=0;entryX=1;entryY=0.75;entryDx=0;entryDy=0;exitX=0;exitY=0.5;exitDx=0;exitDy=0;" edge="1" parent="1" source="2z-QHQyK7kjpqWGuO4v4-67" target="2z-QHQyK7kjpqWGuO4v4-9">
          <mxGeometry width="50" height="50" relative="1" as="geometry">
            <mxPoint x="1520" y="650" as="sourcePoint" />
            <mxPoint x="1460" y="730" as="targetPoint" />
          </mxGeometry>
        </mxCell>
        <mxCell id="2z-QHQyK7kjpqWGuO4v4-73" value="" style="endArrow=none;html=1;rounded=0;entryX=1;entryY=0.5;entryDx=0;entryDy=0;exitX=0;exitY=0.5;exitDx=0;exitDy=0;" edge="1" parent="1" source="2z-QHQyK7kjpqWGuO4v4-66" target="2z-QHQyK7kjpqWGuO4v4-9">
          <mxGeometry width="50" height="50" relative="1" as="geometry">
            <mxPoint x="1530" y="660" as="sourcePoint" />
            <mxPoint x="1470" y="740" as="targetPoint" />
          </mxGeometry>
        </mxCell>
        <mxCell id="2z-QHQyK7kjpqWGuO4v4-74" value="" style="endArrow=none;html=1;rounded=0;entryX=0.5;entryY=1;entryDx=0;entryDy=0;exitX=0.5;exitY=0;exitDx=0;exitDy=0;" edge="1" parent="1" source="2z-QHQyK7kjpqWGuO4v4-63" target="2z-QHQyK7kjpqWGuO4v4-9">
          <mxGeometry width="50" height="50" relative="1" as="geometry">
            <mxPoint x="1540" y="670" as="sourcePoint" />
            <mxPoint x="1480" y="750" as="targetPoint" />
          </mxGeometry>
        </mxCell>
        <mxCell id="2z-QHQyK7kjpqWGuO4v4-75" value="" style="endArrow=none;html=1;rounded=0;exitX=0.5;exitY=0;exitDx=0;exitDy=0;entryX=0.25;entryY=1;entryDx=0;entryDy=0;" edge="1" parent="1" source="2z-QHQyK7kjpqWGuO4v4-51" target="2z-QHQyK7kjpqWGuO4v4-1">
          <mxGeometry relative="1" as="geometry">
            <mxPoint x="757.5" y="720" as="sourcePoint" />
            <mxPoint x="777.5" y="680" as="targetPoint" />
          </mxGeometry>
        </mxCell>
        <mxCell id="2z-QHQyK7kjpqWGuO4v4-76" value="" style="endArrow=none;html=1;rounded=0;exitX=0.75;exitY=1;exitDx=0;exitDy=0;entryX=0.5;entryY=0;entryDx=0;entryDy=0;" edge="1" parent="1" source="2z-QHQyK7kjpqWGuO4v4-1" target="2z-QHQyK7kjpqWGuO4v4-60">
          <mxGeometry relative="1" as="geometry">
            <mxPoint x="767.5" y="730" as="sourcePoint" />
            <mxPoint x="787.5" y="690" as="targetPoint" />
          </mxGeometry>
        </mxCell>
        <mxCell id="2z-QHQyK7kjpqWGuO4v4-77" value="" style="endArrow=none;html=1;rounded=0;entryX=0.5;entryY=0;entryDx=0;entryDy=0;exitX=0.5;exitY=1;exitDx=0;exitDy=0;" edge="1" parent="1" source="2z-QHQyK7kjpqWGuO4v4-7" target="2z-QHQyK7kjpqWGuO4v4-47">
          <mxGeometry width="50" height="50" relative="1" as="geometry">
            <mxPoint x="1665" y="760" as="sourcePoint" />
            <mxPoint x="1575" y="810" as="targetPoint" />
          </mxGeometry>
        </mxCell>
        <mxCell id="2z-QHQyK7kjpqWGuO4v4-78" value="" style="endArrow=none;html=1;rounded=0;entryX=0.5;entryY=1;entryDx=0;entryDy=0;exitX=0.5;exitY=0;exitDx=0;exitDy=0;" edge="1" parent="1" source="2z-QHQyK7kjpqWGuO4v4-7" target="2z-QHQyK7kjpqWGuO4v4-65">
          <mxGeometry width="50" height="50" relative="1" as="geometry">
            <mxPoint x="1912" y="700" as="sourcePoint" />
            <mxPoint x="1985" y="730" as="targetPoint" />
          </mxGeometry>
        </mxCell>
        <mxCell id="2z-QHQyK7kjpqWGuO4v4-79" value="주문상품" style="ellipse;whiteSpace=wrap;html=1;align=center;fillColor=#fff2cc;strokeColor=#d6b656;" vertex="1" parent="1">
          <mxGeometry x="1780" y="870" width="100" height="40" as="geometry" />
        </mxCell>
        <mxCell id="2z-QHQyK7kjpqWGuO4v4-80" value="주문량" style="ellipse;whiteSpace=wrap;html=1;align=center;fillColor=#fff2cc;strokeColor=#d6b656;" vertex="1" parent="1">
          <mxGeometry x="1780" y="940" width="100" height="40" as="geometry" />
        </mxCell>
        <mxCell id="2z-QHQyK7kjpqWGuO4v4-81" value="금액" style="ellipse;whiteSpace=wrap;html=1;align=center;fillColor=#fff2cc;strokeColor=#d6b656;" vertex="1" parent="1">
          <mxGeometry x="1700" y="1010" width="100" height="40" as="geometry" />
        </mxCell>
        <mxCell id="2z-QHQyK7kjpqWGuO4v4-82" value="발주 일자" style="ellipse;whiteSpace=wrap;html=1;align=center;fillColor=#fff2cc;strokeColor=#d6b656;" vertex="1" parent="1">
          <mxGeometry x="1680" y="800" width="100" height="40" as="geometry" />
        </mxCell>
        <mxCell id="2z-QHQyK7kjpqWGuO4v4-83" value="" style="endArrow=none;html=1;rounded=0;entryX=0.75;entryY=0;entryDx=0;entryDy=0;exitX=0.5;exitY=1;exitDx=0;exitDy=0;" edge="1" parent="1" source="2z-QHQyK7kjpqWGuO4v4-82" target="2z-QHQyK7kjpqWGuO4v4-2">
          <mxGeometry width="50" height="50" relative="1" as="geometry">
            <mxPoint x="1540" y="780" as="sourcePoint" />
            <mxPoint x="1450" y="720" as="targetPoint" />
          </mxGeometry>
        </mxCell>
        <mxCell id="2z-QHQyK7kjpqWGuO4v4-84" value="" style="endArrow=none;html=1;rounded=0;entryX=1;entryY=0.25;entryDx=0;entryDy=0;exitX=0;exitY=0.5;exitDx=0;exitDy=0;" edge="1" parent="1" source="2z-QHQyK7kjpqWGuO4v4-79" target="2z-QHQyK7kjpqWGuO4v4-2">
          <mxGeometry width="50" height="50" relative="1" as="geometry">
            <mxPoint x="1740" y="940" as="sourcePoint" />
            <mxPoint x="1705" y="980" as="targetPoint" />
          </mxGeometry>
        </mxCell>
        <mxCell id="2z-QHQyK7kjpqWGuO4v4-85" value="" style="endArrow=none;html=1;rounded=0;entryX=0.5;entryY=0;entryDx=0;entryDy=0;exitX=0.75;exitY=1;exitDx=0;exitDy=0;" edge="1" parent="1" source="2z-QHQyK7kjpqWGuO4v4-2" target="2z-QHQyK7kjpqWGuO4v4-81">
          <mxGeometry width="50" height="50" relative="1" as="geometry">
            <mxPoint x="1750" y="950" as="sourcePoint" />
            <mxPoint x="1715" y="990" as="targetPoint" />
          </mxGeometry>
        </mxCell>
        <mxCell id="2z-QHQyK7kjpqWGuO4v4-86" value="" style="endArrow=none;html=1;rounded=0;entryX=0.5;entryY=0;entryDx=0;entryDy=0;exitX=0.25;exitY=1;exitDx=0;exitDy=0;" edge="1" parent="1" source="2z-QHQyK7kjpqWGuO4v4-2" target="2z-QHQyK7kjpqWGuO4v4-48">
          <mxGeometry width="50" height="50" relative="1" as="geometry">
            <mxPoint x="1760" y="960" as="sourcePoint" />
            <mxPoint x="1725" y="1000" as="targetPoint" />
          </mxGeometry>
        </mxCell>
        <mxCell id="2z-QHQyK7kjpqWGuO4v4-87" value="" style="endArrow=none;html=1;rounded=0;entryX=1;entryY=0.75;entryDx=0;entryDy=0;exitX=0;exitY=0.5;exitDx=0;exitDy=0;" edge="1" parent="1" source="2z-QHQyK7kjpqWGuO4v4-80" target="2z-QHQyK7kjpqWGuO4v4-2">
          <mxGeometry width="50" height="50" relative="1" as="geometry">
            <mxPoint x="1770" y="970" as="sourcePoint" />
            <mxPoint x="1735" y="1010" as="targetPoint" />
          </mxGeometry>
        </mxCell>
        <mxCell id="2z-QHQyK7kjpqWGuO4v4-88" value="일자" style="ellipse;whiteSpace=wrap;html=1;align=center;fillColor=#fff2cc;strokeColor=#d6b656;" vertex="1" parent="1">
          <mxGeometry x="934" y="890" width="100" height="40" as="geometry" />
        </mxCell>
        <mxCell id="2z-QHQyK7kjpqWGuO4v4-89" value="시간" style="ellipse;whiteSpace=wrap;html=1;align=center;fillColor=#fff2cc;strokeColor=#d6b656;" vertex="1" parent="1">
          <mxGeometry x="944" y="830" width="100" height="40" as="geometry" />
        </mxCell>
        <mxCell id="2z-QHQyK7kjpqWGuO4v4-90" value="판매 개수" style="ellipse;whiteSpace=wrap;html=1;align=center;fillColor=#fff2cc;strokeColor=#d6b656;" vertex="1" parent="1">
          <mxGeometry x="1054" y="980" width="100" height="40" as="geometry" />
        </mxCell>
        <mxCell id="2z-QHQyK7kjpqWGuO4v4-91" value="결제방식" style="ellipse;whiteSpace=wrap;html=1;align=center;fillColor=#fff2cc;strokeColor=#d6b656;" vertex="1" parent="1">
          <mxGeometry x="1314" y="990" width="100" height="40" as="geometry" />
        </mxCell>
        <mxCell id="2z-QHQyK7kjpqWGuO4v4-92" value="실판매상품번호" style="ellipse;whiteSpace=wrap;html=1;align=center;fillColor=#fff2cc;strokeColor=#d6b656;" vertex="1" parent="1">
          <mxGeometry x="1054" y="790" width="100" height="40" as="geometry" />
        </mxCell>
        <mxCell id="2z-QHQyK7kjpqWGuO4v4-93" value="매출액" style="ellipse;whiteSpace=wrap;html=1;align=center;fillColor=#fff2cc;strokeColor=#d6b656;" vertex="1" parent="1">
          <mxGeometry x="1164" y="1000" width="100" height="40" as="geometry" />
        </mxCell>
        <mxCell id="2z-QHQyK7kjpqWGuO4v4-94" value="" style="endArrow=none;html=1;rounded=0;exitX=0.5;exitY=1;exitDx=0;exitDy=0;entryX=0.5;entryY=0;entryDx=0;entryDy=0;" edge="1" parent="1" source="2z-QHQyK7kjpqWGuO4v4-92" target="2z-QHQyK7kjpqWGuO4v4-10">
          <mxGeometry relative="1" as="geometry">
            <mxPoint x="1129" y="610" as="sourcePoint" />
            <mxPoint x="1184" y="650" as="targetPoint" />
          </mxGeometry>
        </mxCell>
        <mxCell id="2z-QHQyK7kjpqWGuO4v4-95" value="" style="endArrow=none;html=1;rounded=0;exitX=1;exitY=0.5;exitDx=0;exitDy=0;entryX=0;entryY=0.25;entryDx=0;entryDy=0;" edge="1" parent="1" source="2z-QHQyK7kjpqWGuO4v4-89" target="2z-QHQyK7kjpqWGuO4v4-10">
          <mxGeometry relative="1" as="geometry">
            <mxPoint x="1124" y="900" as="sourcePoint" />
            <mxPoint x="1134" y="950" as="targetPoint" />
          </mxGeometry>
        </mxCell>
        <mxCell id="2z-QHQyK7kjpqWGuO4v4-96" value="" style="endArrow=none;html=1;rounded=0;exitX=1;exitY=0.5;exitDx=0;exitDy=0;entryX=0;entryY=0.5;entryDx=0;entryDy=0;" edge="1" parent="1" source="2z-QHQyK7kjpqWGuO4v4-88" target="2z-QHQyK7kjpqWGuO4v4-10">
          <mxGeometry relative="1" as="geometry">
            <mxPoint x="1039" y="924" as="sourcePoint" />
            <mxPoint x="1109" y="950" as="targetPoint" />
            <Array as="points" />
          </mxGeometry>
        </mxCell>
        <mxCell id="2z-QHQyK7kjpqWGuO4v4-97" value="" style="endArrow=none;html=1;rounded=0;exitX=1;exitY=0;exitDx=0;exitDy=0;entryX=0;entryY=0.75;entryDx=0;entryDy=0;" edge="1" parent="1" source="2z-QHQyK7kjpqWGuO4v4-50" target="2z-QHQyK7kjpqWGuO4v4-10">
          <mxGeometry relative="1" as="geometry">
            <mxPoint x="1014" y="970" as="sourcePoint" />
            <mxPoint x="1084" y="970" as="targetPoint" />
          </mxGeometry>
        </mxCell>
        <mxCell id="2z-QHQyK7kjpqWGuO4v4-98" value="" style="endArrow=none;html=1;rounded=0;exitX=0.5;exitY=0;exitDx=0;exitDy=0;entryX=0.25;entryY=1;entryDx=0;entryDy=0;" edge="1" parent="1" source="2z-QHQyK7kjpqWGuO4v4-90" target="2z-QHQyK7kjpqWGuO4v4-10">
          <mxGeometry relative="1" as="geometry">
            <mxPoint x="1019" y="1026" as="sourcePoint" />
            <mxPoint x="1084" y="980" as="targetPoint" />
          </mxGeometry>
        </mxCell>
        <mxCell id="2z-QHQyK7kjpqWGuO4v4-99" value="" style="endArrow=none;html=1;rounded=0;exitX=0.5;exitY=0;exitDx=0;exitDy=0;entryX=0.5;entryY=1;entryDx=0;entryDy=0;" edge="1" parent="1" source="2z-QHQyK7kjpqWGuO4v4-93" target="2z-QHQyK7kjpqWGuO4v4-10">
          <mxGeometry relative="1" as="geometry">
            <mxPoint x="1104" y="1030" as="sourcePoint" />
            <mxPoint x="1109" y="990" as="targetPoint" />
          </mxGeometry>
        </mxCell>
        <mxCell id="2z-QHQyK7kjpqWGuO4v4-100" value="" style="endArrow=none;html=1;rounded=0;exitX=0;exitY=0;exitDx=0;exitDy=0;entryX=0.75;entryY=1;entryDx=0;entryDy=0;" edge="1" parent="1" source="2z-QHQyK7kjpqWGuO4v4-91" target="2z-QHQyK7kjpqWGuO4v4-10">
          <mxGeometry relative="1" as="geometry">
            <mxPoint x="1199" y="1026" as="sourcePoint" />
            <mxPoint x="1159" y="990" as="targetPoint" />
          </mxGeometry>
        </mxCell>
        <mxCell id="2z-QHQyK7kjpqWGuO4v4-101" value="참조한다" style="shape=rhombus;perimeter=rhombusPerimeter;whiteSpace=wrap;html=1;align=center;fillColor=#e1d5e7;strokeColor=#9673a6;" vertex="1" parent="1">
          <mxGeometry x="1510" y="830" width="90" height="40" as="geometry" />
        </mxCell>
        <mxCell id="2z-QHQyK7kjpqWGuO4v4-102" value="참조한다" style="shape=rhombus;perimeter=rhombusPerimeter;whiteSpace=wrap;html=1;align=center;fillColor=#e1d5e7;strokeColor=#9673a6;" vertex="1" parent="1">
          <mxGeometry x="1540" y="595" width="90" height="40" as="geometry" />
        </mxCell>
        <mxCell id="2z-QHQyK7kjpqWGuO4v4-103" value="참조한다" style="shape=rhombus;perimeter=rhombusPerimeter;whiteSpace=wrap;html=1;align=center;fillColor=#e1d5e7;strokeColor=#9673a6;" vertex="1" parent="1">
          <mxGeometry x="1275" y="780" width="90" height="40" as="geometry" />
        </mxCell>
        <mxCell id="2z-QHQyK7kjpqWGuO4v4-104" value="분류한다" style="shape=rhombus;perimeter=rhombusPerimeter;whiteSpace=wrap;html=1;align=center;fillColor=#e1d5e7;strokeColor=#9673a6;" vertex="1" parent="1">
          <mxGeometry x="1230" y="640" width="90" height="40" as="geometry" />
        </mxCell>
        <mxCell id="2z-QHQyK7kjpqWGuO4v4-105" value="분류한다" style="shape=rhombus;perimeter=rhombusPerimeter;whiteSpace=wrap;html=1;align=center;fillColor=#e1d5e7;strokeColor=#9673a6;" vertex="1" parent="1">
          <mxGeometry x="902.5" y="630" width="90" height="40" as="geometry" />
        </mxCell>
        <mxCell id="2z-QHQyK7kjpqWGuO4v4-106" value="관리한다" style="shape=rhombus;perimeter=rhombusPerimeter;whiteSpace=wrap;html=1;align=center;fillColor=#e1d5e7;strokeColor=#9673a6;" vertex="1" parent="1">
          <mxGeometry x="1160" y="390" width="90" height="40" as="geometry" />
        </mxCell>
        <mxCell id="2z-QHQyK7kjpqWGuO4v4-107" value="" style="endArrow=none;html=1;rounded=0;exitX=1;exitY=0.5;exitDx=0;exitDy=0;entryX=0;entryY=0.5;entryDx=0;entryDy=0;" edge="1" parent="1" source="2z-QHQyK7kjpqWGuO4v4-106" target="2z-QHQyK7kjpqWGuO4v4-6">
          <mxGeometry relative="1" as="geometry">
            <mxPoint x="1355" y="700" as="sourcePoint" />
            <mxPoint x="1515" y="700" as="targetPoint" />
          </mxGeometry>
        </mxCell>
        <mxCell id="2z-QHQyK7kjpqWGuO4v4-108" value="N" style="resizable=0;html=1;whiteSpace=wrap;align=right;verticalAlign=bottom;" connectable="0" vertex="1" parent="2z-QHQyK7kjpqWGuO4v4-107">
          <mxGeometry x="1" relative="1" as="geometry" />
        </mxCell>
        <mxCell id="2z-QHQyK7kjpqWGuO4v4-109" value="" style="endArrow=none;html=1;rounded=0;exitX=1;exitY=0.5;exitDx=0;exitDy=0;entryX=0;entryY=0.5;entryDx=0;entryDy=0;" edge="1" parent="1" source="2z-QHQyK7kjpqWGuO4v4-3" target="2z-QHQyK7kjpqWGuO4v4-106">
          <mxGeometry relative="1" as="geometry">
            <mxPoint x="1355" y="700" as="sourcePoint" />
            <mxPoint x="1515" y="700" as="targetPoint" />
          </mxGeometry>
        </mxCell>
        <mxCell id="2z-QHQyK7kjpqWGuO4v4-110" value="1" style="text;html=1;align=center;verticalAlign=middle;resizable=0;points=[];autosize=1;strokeColor=none;fillColor=none;" vertex="1" parent="1">
          <mxGeometry x="1095" y="390" width="30" height="30" as="geometry" />
        </mxCell>
        <mxCell id="2z-QHQyK7kjpqWGuO4v4-111" value="1" style="text;html=1;align=center;verticalAlign=middle;resizable=0;points=[];autosize=1;strokeColor=none;fillColor=none;" vertex="1" parent="1">
          <mxGeometry x="1014" y="630" width="30" height="30" as="geometry" />
        </mxCell>
        <mxCell id="2z-QHQyK7kjpqWGuO4v4-112" value="1" style="text;html=1;align=center;verticalAlign=middle;resizable=0;points=[];autosize=1;strokeColor=none;fillColor=none;" vertex="1" parent="1">
          <mxGeometry x="1127.5" y="630" width="30" height="30" as="geometry" />
        </mxCell>
        <mxCell id="2z-QHQyK7kjpqWGuO4v4-113" value="N" style="text;html=1;align=center;verticalAlign=middle;resizable=0;points=[];autosize=1;strokeColor=none;fillColor=none;" vertex="1" parent="1">
          <mxGeometry x="1370" y="680" width="30" height="30" as="geometry" />
        </mxCell>
        <mxCell id="2z-QHQyK7kjpqWGuO4v4-114" value="" style="endArrow=none;html=1;rounded=0;entryX=0.25;entryY=1;entryDx=0;entryDy=0;exitX=1;exitY=0;exitDx=0;exitDy=0;" edge="1" parent="1" source="2z-QHQyK7kjpqWGuO4v4-103" target="2z-QHQyK7kjpqWGuO4v4-9">
          <mxGeometry relative="1" as="geometry">
            <mxPoint x="1210" y="730" as="sourcePoint" />
            <mxPoint x="1370" y="730" as="targetPoint" />
          </mxGeometry>
        </mxCell>
        <mxCell id="2z-QHQyK7kjpqWGuO4v4-115" value="1" style="text;html=1;align=center;verticalAlign=middle;resizable=0;points=[];autosize=1;strokeColor=none;fillColor=none;" vertex="1" parent="1">
          <mxGeometry x="1390" y="740" width="30" height="30" as="geometry" />
        </mxCell>
        <mxCell id="2z-QHQyK7kjpqWGuO4v4-116" value="" style="endArrow=none;html=1;rounded=0;entryX=0;entryY=1;entryDx=0;entryDy=0;exitX=0.75;exitY=0;exitDx=0;exitDy=0;" edge="1" parent="1" source="2z-QHQyK7kjpqWGuO4v4-10" target="2z-QHQyK7kjpqWGuO4v4-103">
          <mxGeometry relative="1" as="geometry">
            <mxPoint x="1255" y="860" as="sourcePoint" />
            <mxPoint x="1415" y="750" as="targetPoint" />
          </mxGeometry>
        </mxCell>
        <mxCell id="2z-QHQyK7kjpqWGuO4v4-117" value="N" style="text;html=1;align=center;verticalAlign=middle;resizable=0;points=[];autosize=1;strokeColor=none;fillColor=none;" vertex="1" parent="1">
          <mxGeometry x="1255" y="840" width="30" height="30" as="geometry" />
        </mxCell>
        <mxCell id="2z-QHQyK7kjpqWGuO4v4-118" value="" style="endArrow=none;html=1;rounded=0;entryX=0;entryY=1;entryDx=0;entryDy=0;exitX=0.75;exitY=0;exitDx=0;exitDy=0;" edge="1" parent="1" source="2z-QHQyK7kjpqWGuO4v4-9" target="2z-QHQyK7kjpqWGuO4v4-102">
          <mxGeometry relative="1" as="geometry">
            <mxPoint x="1348" y="790" as="sourcePoint" />
            <mxPoint x="1415" y="750" as="targetPoint" />
          </mxGeometry>
        </mxCell>
        <mxCell id="2z-QHQyK7kjpqWGuO4v4-119" value="N" style="text;html=1;align=center;verticalAlign=middle;resizable=0;points=[];autosize=1;strokeColor=none;fillColor=none;" vertex="1" parent="1">
          <mxGeometry x="1435" y="680" width="30" height="30" as="geometry" />
        </mxCell>
        <mxCell id="2z-QHQyK7kjpqWGuO4v4-120" value="1" style="text;html=1;align=center;verticalAlign=middle;resizable=0;points=[];autosize=1;strokeColor=none;fillColor=none;" vertex="1" parent="1">
          <mxGeometry x="1705" y="640" width="30" height="30" as="geometry" />
        </mxCell>
        <mxCell id="2z-QHQyK7kjpqWGuO4v4-121" value="" style="endArrow=none;html=1;rounded=0;entryX=0.43;entryY=0.05;entryDx=0;entryDy=0;exitX=1;exitY=1;exitDx=0;exitDy=0;entryPerimeter=0;" edge="1" parent="1" source="2z-QHQyK7kjpqWGuO4v4-101" target="2z-QHQyK7kjpqWGuO4v4-2">
          <mxGeometry width="50" height="50" relative="1" as="geometry">
            <mxPoint x="1595" y="1030" as="sourcePoint" />
            <mxPoint x="1620" y="1110" as="targetPoint" />
          </mxGeometry>
        </mxCell>
        <mxCell id="2z-QHQyK7kjpqWGuO4v4-122" value="1" style="text;html=1;align=center;verticalAlign=middle;resizable=0;points=[];autosize=1;strokeColor=none;fillColor=none;" vertex="1" parent="1">
          <mxGeometry x="1455" y="730" width="30" height="30" as="geometry" />
        </mxCell>
        <mxCell id="2z-QHQyK7kjpqWGuO4v4-123" value="1" style="text;html=1;align=center;verticalAlign=middle;resizable=0;points=[];autosize=1;strokeColor=none;fillColor=none;" vertex="1" parent="1">
          <mxGeometry x="1595" y="865" width="30" height="30" as="geometry" />
        </mxCell>
        <mxCell id="2z-QHQyK7kjpqWGuO4v4-124" value="" style="endArrow=none;html=1;rounded=0;exitX=1;exitY=0.5;exitDx=0;exitDy=0;entryX=0;entryY=0.5;entryDx=0;entryDy=0;" edge="1" parent="1" source="2z-QHQyK7kjpqWGuO4v4-4" target="2z-QHQyK7kjpqWGuO4v4-105">
          <mxGeometry relative="1" as="geometry">
            <mxPoint x="1200" y="760" as="sourcePoint" />
            <mxPoint x="1360" y="760" as="targetPoint" />
          </mxGeometry>
        </mxCell>
        <mxCell id="2z-QHQyK7kjpqWGuO4v4-125" value="" style="endArrow=none;html=1;rounded=0;exitX=1;exitY=0.5;exitDx=0;exitDy=0;entryX=0;entryY=0.5;entryDx=0;entryDy=0;" edge="1" parent="1" source="2z-QHQyK7kjpqWGuO4v4-105" target="2z-QHQyK7kjpqWGuO4v4-1">
          <mxGeometry relative="1" as="geometry">
            <mxPoint x="870" y="660" as="sourcePoint" />
            <mxPoint x="913" y="660" as="targetPoint" />
          </mxGeometry>
        </mxCell>
        <mxCell id="2z-QHQyK7kjpqWGuO4v4-126" value="" style="endArrow=none;html=1;rounded=0;exitX=1;exitY=0.5;exitDx=0;exitDy=0;entryX=0;entryY=0.5;entryDx=0;entryDy=0;" edge="1" parent="1" source="2z-QHQyK7kjpqWGuO4v4-1" target="2z-QHQyK7kjpqWGuO4v4-104">
          <mxGeometry relative="1" as="geometry">
            <mxPoint x="1003" y="660" as="sourcePoint" />
            <mxPoint x="1048" y="660" as="targetPoint" />
          </mxGeometry>
        </mxCell>
        <mxCell id="2z-QHQyK7kjpqWGuO4v4-127" value="" style="endArrow=none;html=1;rounded=0;exitX=0;exitY=0;exitDx=0;exitDy=0;entryX=1;entryY=1;entryDx=0;entryDy=0;" edge="1" parent="1" source="2z-QHQyK7kjpqWGuO4v4-9" target="2z-QHQyK7kjpqWGuO4v4-104">
          <mxGeometry relative="1" as="geometry">
            <mxPoint x="1013" y="670" as="sourcePoint" />
            <mxPoint x="1058" y="670" as="targetPoint" />
          </mxGeometry>
        </mxCell>
        <mxCell id="2z-QHQyK7kjpqWGuO4v4-128" value="" style="endArrow=none;html=1;rounded=0;exitX=0;exitY=0;exitDx=0;exitDy=0;entryX=0.75;entryY=1;entryDx=0;entryDy=0;" edge="1" parent="1" source="2z-QHQyK7kjpqWGuO4v4-101" target="2z-QHQyK7kjpqWGuO4v4-9">
          <mxGeometry relative="1" as="geometry">
            <mxPoint x="1390" y="710" as="sourcePoint" />
            <mxPoint x="1308" y="680" as="targetPoint" />
          </mxGeometry>
        </mxCell>
        <mxCell id="2z-QHQyK7kjpqWGuO4v4-129" value="N" style="text;html=1;align=center;verticalAlign=middle;resizable=0;points=[];autosize=1;strokeColor=none;fillColor=none;" vertex="1" parent="1">
          <mxGeometry x="855" y="628" width="30" height="30" as="geometry" />
        </mxCell>
        <mxCell id="2z-QHQyK7kjpqWGuO4v4-130" value="" style="endArrow=none;html=1;rounded=0;entryX=1;entryY=0.5;entryDx=0;entryDy=0;exitX=0;exitY=0.5;exitDx=0;exitDy=0;" edge="1" parent="1" source="2z-QHQyK7kjpqWGuO4v4-7" target="2z-QHQyK7kjpqWGuO4v4-102">
          <mxGeometry width="50" height="50" relative="1" as="geometry">
            <mxPoint x="1540" y="680" as="sourcePoint" />
            <mxPoint x="1490" y="720" as="targetPoint" />
          </mxGeometry>
        </mxCell>
        <mxCell id="2z-QHQyK7kjpqWGuO4v4-131" value="이벤트 번호" style="ellipse;whiteSpace=wrap;html=1;align=center;fillColor=#fff2cc;strokeColor=#d6b656;" vertex="1" parent="1">
          <mxGeometry x="1230" y="735" width="100" height="40" as="geometry" />
        </mxCell>
        <mxCell id="2z-QHQyK7kjpqWGuO4v4-132" value="" style="endArrow=none;html=1;rounded=0;entryX=0;entryY=0.75;entryDx=0;entryDy=0;exitX=1;exitY=0.5;exitDx=0;exitDy=0;" edge="1" parent="1" source="2z-QHQyK7kjpqWGuO4v4-131" target="2z-QHQyK7kjpqWGuO4v4-9">
          <mxGeometry width="50" height="50" relative="1" as="geometry">
            <mxPoint x="1340" y="720" as="sourcePoint" />
            <mxPoint x="1390" y="730" as="targetPoint" />
          </mxGeometry>
        </mxCell>
      </root>
    </mxGraphModel>
  </diagram>
</mxfile>
